<?xml version="1.0" encoding="utf-8"?>
<!-- Generator: Adobe Illustrator 16.0.2, SVG Export Plug-In . SVG Version: 6.00 Build 0)  -->
<!DOCTYPE svg PUBLIC "-//W3C//DTD SVG 1.1//EN" "http://www.w3.org/Graphics/SVG/1.1/DTD/svg11.dtd">
<svg version="1.1" id="Layer_1" xmlns="http://www.w3.org/2000/svg" xmlns:xlink="http://www.w3.org/1999/xlink" x="0px" y="0px"
	 width="41.833px" height="32.471px" viewBox="0 0 41.833 32.471" enable-background="new 0 0 41.833 32.471" xml:space="preserve">
<g>
	<g>
		
			<linearGradient id="SVGID_1_" gradientUnits="userSpaceOnUse" x1="-60.7979" y1="16.2246" x2="-30.2871" y2="16.2246" gradientTransform="matrix(1 0 0 1 71.0137 0)">
			<stop  offset="0" style="stop-color:#D3FFCF"/>
			<stop  offset="1" style="stop-color:#1DFFF2"/>
		</linearGradient>
		<path fill-rule="evenodd" clip-rule="evenodd" fill="url(#SVGID_1_)" d="M24.596,0.719c-0.62,0-1.126,0.504-1.126,1.125
			c0,0.622,0.506,1.125,1.126,1.125c0.621,0,1.126-0.503,1.126-1.125C25.722,1.223,25.217,0.719,24.596,0.719z M10.842,30.48
			c-0.346,0-0.626,0.28-0.626,0.625s0.28,0.625,0.626,0.625c0.345,0,0.625-0.279,0.625-0.625S11.187,30.48,10.842,30.48z
			 M40.352,25.227c-0.206,0-0.374,0.169-0.374,0.376c0,0.207,0.168,0.375,0.374,0.375c0.208,0,0.375-0.168,0.375-0.375
			C40.727,25.396,40.56,25.227,40.352,25.227z"/>
	</g>
</g>
<path fill="#39CC74" d="M33.025,20.891c0,4.171-3.382,7.551-7.553,7.551c-4.17,0-7.552-3.38-7.552-7.551s3.382-7.552,7.552-7.552
	C29.644,13.339,33.025,16.72,33.025,20.891"/>
<path fill="#4C4C4C" d="M23.804,27.867c-4.356,0-7.9-3.544-7.9-7.9c0-4.356,3.544-7.9,7.9-7.9c4.355,0,7.899,3.544,7.899,7.9
	C31.703,24.323,28.159,27.867,23.804,27.867z M23.804,12.764c-3.972,0-7.203,3.231-7.203,7.203c0,3.972,3.231,7.203,7.203,7.203
	s7.202-3.231,7.202-7.203C31.006,15.995,27.775,12.764,23.804,12.764z"/>
<g>
	<path fill="#4C4C4C" d="M24.667,21.505c0-0.242-0.087-0.45-0.262-0.625c-0.174-0.174-0.46-0.33-0.856-0.466
		c-0.55-0.166-0.966-0.388-1.246-0.666c-0.28-0.278-0.421-0.648-0.421-1.111c0-0.449,0.129-0.815,0.387-1.099
		c0.257-0.283,0.611-0.453,1.063-0.511v-0.902h0.645v0.907c0.458,0.065,0.813,0.261,1.065,0.586
		c0.251,0.326,0.377,0.762,0.377,1.309h-0.801c0-0.37-0.086-0.67-0.258-0.898c-0.171-0.229-0.409-0.343-0.715-0.343
		c-0.32,0-0.561,0.084-0.72,0.251s-0.239,0.396-0.239,0.688c0,0.264,0.083,0.478,0.247,0.641c0.165,0.164,0.463,0.319,0.892,0.466
		c0.559,0.18,0.973,0.404,1.242,0.672s0.404,0.632,0.404,1.093c0,0.468-0.141,0.841-0.421,1.117s-0.665,0.44-1.155,0.492v0.784
		h-0.641v-0.78c-0.469-0.049-0.853-0.22-1.152-0.513c-0.299-0.292-0.443-0.722-0.433-1.289l0.008-0.021h0.776
		c0,0.419,0.105,0.718,0.316,0.896s0.471,0.268,0.778,0.268c0.351,0,0.625-0.083,0.823-0.251
		C24.569,22.035,24.667,21.802,24.667,21.505z"/>
</g>
<path fill="#4C4C4C" d="M16.252,13.915h-1.395c-0.028,0-0.052-0.023-0.052-0.052s0.023-0.053,0.052-0.053h1.395
	c0.028,0,0.052,0.024,0.052,0.053S16.28,13.915,16.252,13.915z M13.464,13.915h-1.395c-0.028,0-0.053-0.023-0.053-0.052
	s0.024-0.053,0.053-0.053h1.395c0.028,0,0.052,0.024,0.052,0.053S13.492,13.915,13.464,13.915z M10.675,13.915H9.281
	c-0.029,0-0.053-0.023-0.053-0.052s0.023-0.053,0.053-0.053h1.394c0.029,0,0.053,0.024,0.053,0.053S10.704,13.915,10.675,13.915z"/>
<path fill="#4C4C4C" d="M13.541,17.24h-1.395c-0.028,0-0.052-0.023-0.052-0.053c0-0.029,0.023-0.052,0.052-0.052h1.395
	c0.028,0,0.053,0.023,0.053,0.052C13.594,17.217,13.569,17.24,13.541,17.24z M10.753,17.24H9.358c-0.028,0-0.053-0.023-0.053-0.053
	c0-0.029,0.024-0.052,0.053-0.052h1.395c0.028,0,0.052,0.023,0.052,0.052C10.805,17.217,10.781,17.24,10.753,17.24z M7.964,17.24
	H6.57c-0.028,0-0.053-0.023-0.053-0.053c0-0.029,0.024-0.052,0.053-0.052h1.394c0.029,0,0.053,0.023,0.053,0.052
	C8.017,17.217,7.993,17.24,7.964,17.24z"/>
<path fill="#4C4C4C" d="M14.818,15.559H0.926c-0.029,0-0.053-0.023-0.053-0.052c0-0.029,0.023-0.053,0.053-0.053h13.893
	c0.028,0,0.052,0.023,0.052,0.053C14.87,15.535,14.847,15.559,14.818,15.559z"/>
</svg>
