<?xml version="1.0" encoding="utf-8"?>
<!-- Generator: Adobe Illustrator 16.0.2, SVG Export Plug-In . SVG Version: 6.00 Build 0)  -->
<!DOCTYPE svg PUBLIC "-//W3C//DTD SVG 1.1//EN" "http://www.w3.org/Graphics/SVG/1.1/DTD/svg11.dtd">
<svg version="1.1" id="Layer_1" xmlns="http://www.w3.org/2000/svg" xmlns:xlink="http://www.w3.org/1999/xlink" x="0px" y="0px"
	 width="43.833px" height="35.167px" viewBox="0 0 43.833 35.167" enable-background="new 0 0 43.833 35.167" xml:space="preserve">
<g>
	<g>
		
			<linearGradient id="SVGID_1_" gradientUnits="userSpaceOnUse" x1="-45.751" y1="16.2246" x2="-15.2412" y2="16.2246" gradientTransform="matrix(1 0 0 1 46.6221 0)">
			<stop  offset="0" style="stop-color:#D3FFCF"/>
			<stop  offset="1" style="stop-color:#1DFFF2"/>
		</linearGradient>
		<path fill-rule="evenodd" clip-rule="evenodd" fill="url(#SVGID_1_)" d="M15.25,0.719c-0.62,0-1.125,0.504-1.125,1.125
			c0,0.622,0.505,1.125,1.125,1.125c0.622,0,1.127-0.503,1.127-1.125C16.377,1.223,15.872,0.719,15.25,0.719z M1.496,30.48
			c-0.346,0-0.625,0.28-0.625,0.625s0.279,0.625,0.625,0.625c0.345,0,0.625-0.279,0.625-0.625S1.841,30.48,1.496,30.48z
			 M31.007,25.227c-0.206,0-0.375,0.169-0.375,0.376c0,0.207,0.169,0.375,0.375,0.375c0.208,0,0.374-0.168,0.374-0.375
			C31.381,25.396,31.215,25.227,31.007,25.227z"/>
	</g>
</g>
<linearGradient id="SVGID_2_" gradientUnits="userSpaceOnUse" x1="17.1895" y1="21.647" x2="19.6729" y2="21.647">
	<stop  offset="0" style="stop-color:#D3FFCF"/>
	<stop  offset="1" style="stop-color:#1DFFF2"/>
</linearGradient>
<path fill="url(#SVGID_2_)" d="M19.673,21.647c0,0.326-0.265,0.591-0.591,0.591H17.78c-0.326,0-0.591-0.265-0.591-0.591l0,0
	c0-0.327,0.265-0.591,0.591-0.591h1.302C19.408,21.056,19.673,21.32,19.673,21.647L19.673,21.647z"/>
<linearGradient id="SVGID_3_" gradientUnits="userSpaceOnUse" x1="18.8916" y1="10.0322" x2="25.3643" y2="10.0322">
	<stop  offset="0" style="stop-color:#D3FFCF"/>
	<stop  offset="1" style="stop-color:#1DFFF2"/>
</linearGradient>
<path fill="url(#SVGID_3_)" d="M25.364,10.03c0,1.044-0.846,1.891-1.89,1.891h-2.695c-1.043,0-1.888-0.847-1.888-1.891l0,0
	c0-1.042,0.845-1.888,1.888-1.888h2.695C24.519,8.143,25.364,8.988,25.364,10.03L25.364,10.03z"/>
<path fill="#4C4C4C" d="M23.475,12.141h-2.695c-1.162,0-2.107-0.947-2.107-2.11c0-1.162,0.945-2.108,2.107-2.108h2.695
	c1.163,0,2.109,0.946,2.109,2.108C25.584,11.194,24.638,12.141,23.475,12.141z M20.779,8.362c-0.92,0-1.668,0.748-1.668,1.668
	c0,0.921,0.748,1.67,1.668,1.67h2.695c0.921,0,1.67-0.75,1.67-1.67c0-0.92-0.749-1.668-1.67-1.668H20.779z"/>
<linearGradient id="SVGID_4_" gradientUnits="userSpaceOnUse" x1="15.6553" y1="5.2246" x2="22.1279" y2="5.2246">
	<stop  offset="0" style="stop-color:#D3FFCF"/>
	<stop  offset="1" style="stop-color:#1DFFF2"/>
</linearGradient>
<path fill="url(#SVGID_4_)" d="M22.128,5.223c0,1.044-0.846,1.891-1.89,1.891h-2.695c-1.043,0-1.888-0.847-1.888-1.891l0,0
	c0-1.042,0.845-1.888,1.888-1.888h2.695C21.282,3.335,22.128,4.181,22.128,5.223L22.128,5.223z"/>
<path fill="#4C4C4C" d="M20.238,7.333h-2.695c-1.162,0-2.107-0.947-2.107-2.11c0-1.162,0.945-2.107,2.107-2.107h2.695
	c1.163,0,2.109,0.945,2.109,2.107C22.348,6.387,21.401,7.333,20.238,7.333z M17.543,3.555c-0.92,0-1.668,0.748-1.668,1.668
	c0,0.921,0.748,1.67,1.668,1.67h2.695c0.921,0,1.67-0.749,1.67-1.67c0-0.92-0.749-1.668-1.67-1.668H17.543z"/>
<path fill="#4C4C4C" d="M27.411,19.127c0-1.258-0.687-2.414-1.817-3.024c-0.369-0.086-0.721-0.21-1.069-0.376l-1.896-0.317v-1.086
	l-0.13,0.074c-0.108,0.061-0.22,0.12-0.334,0.173l-0.051,0.023l-0.007,1.014l-1.328,3.983l-0.876-2.731
	c0.222-0.533,0.333-1.082,0.333-1.631v-0.202c0,0-0.263,0.014-0.323,0.014c-0.028,0-0.19-0.001-0.19-0.001v0.19
	c0,0.841-0.294,1.67-0.829,2.336l-0.251,0.312l-0.002-2.633l-0.355,0.146c-0.009,0.003-0.935,0.379-3.087,0.379
	s-3.078-0.375-3.087-0.379l-0.36-0.154v2.004l-0.098-0.187c-0.278-0.579-0.502-1.428-0.556-2.111l-0.008-0.092l-0.091,0.012
	c-0.115,0.014-0.232,0.025-0.351,0.033l-0.084,0.043l0.004,0.086c0.011,0.252,0.038,0.48,0.081,0.699l0.018,0.092L9.626,16.51
	l-1.345-0.965v-0.965l-0.056-0.022c-0.113-0.043-0.227-0.088-0.334-0.14l-0.126-0.06v1.053l-1.903,0.318
	c-1.668,0.277-2.879,1.707-2.879,3.398v3.137h8.088c-0.428,0.083-0.893,0.19-1.212,0.313c-1.271,0.539-2.094,1.78-2.094,3.162v3.699
	h14.863v-3.699c0-1.417-0.849-2.671-2.166-3.196c-0.311-0.108-0.729-0.204-1.116-0.278h8.064V19.127z M19.55,17.545l0.648,1.948
	l0.23,0.605l-1.659-1.659l0.108-0.1c0.175-0.163,0.344-0.352,0.512-0.577L19.55,17.545z M10.151,18.786l0.371,2.962H8.714
	l0.355-3.022l-0.606-0.908l1.154-0.694l1.156,0.694L10.151,18.786z M7.713,17.667l-0.94-1.569L7.956,15.9l1.201,0.9L7.713,17.667z
	 M6.227,16.189l1.311,2.184l0.486-0.292l0.534,0.766l-0.362,2.901H5.89v-1.195H5.375v1.195H3.499v-2.621
	c0-1.438,1.03-2.655,2.449-2.892L6.227,16.189z M10.663,18.907l0.554-0.828l0.557,0.301l0.015,0.108
	c0.108,0.803,0.504,1.547,1.113,2.094l0.046,0.002v1.164H11.04L10.663,18.907z M24.448,16.235c1.419,0.238,2.448,1.454,2.448,2.892
	v2.621h-1.876v-1.195h-0.516v1.195h-7.058l-0.028-1.098l0.076-0.068c0.437-0.394,0.768-0.894,0.958-1.445l0.074-0.213l2.25,2.251
	l3.46-3.515l-0.303-1.509L24.448,16.235z M15.198,21.466c0.536,0,1.052-0.122,1.53-0.363l0.21-0.105l0.027,0.857l-1.769,1.415
	l-1.733-1.347v-0.922l0.202,0.102C14.15,21.344,14.666,21.466,15.198,21.466z M13.283,24.448l-1.27-1.903l1.127-0.26l1.606,1.286
	L13.283,24.448z M14.648,25.5l-0.604-0.908l1.154-0.693l1.154,0.693l-0.62,0.966l0.373,3.363H14.29L14.648,25.5z M17.112,24.448
	l-1.464-0.879l1.604-1.285l1.129,0.26L17.112,24.448z M18.129,15.982v2.038c0,1.616-1.315,2.931-2.931,2.931
	c-1.616,0-2.932-1.315-2.932-2.931v-2.038l0.173,0.042c0.511,0.119,1.403,0.261,2.759,0.261c1.352,0,2.245-0.142,2.757-0.261
	L18.129,15.982z M11.478,22.67l1.649,2.473l0.476-0.285l0.535,0.768l-0.366,3.297h-3.1V26.93h-0.515v1.993H8.281v-3.185
	c0-1.373,0.935-2.547,2.272-2.856L11.478,22.67z M22.114,28.922h-1.878V26.93h-0.514v1.993h-3.101l-0.379-3.239l0.551-0.825
	l0.475,0.284l1.648-2.473l0.925,0.212c1.338,0.309,2.272,1.483,2.272,2.856V28.922z M23.392,16.06l0.327,1.443l-2.593,2.595
	l0.23-0.608l1.19-3.571L23.392,16.06z M10.813,16.337l0.063,0.163c0.096,0.246,0.197,0.461,0.313,0.661l0.333,0.521l-1.424-0.869
	L10.813,16.337z"/>
<path fill="#D3D3D3" d="M14.233,10.791c0,1.473-1.194,2.667-2.667,2.667H7.022c-1.474,0-2.668-1.194-2.668-2.667V6.247
	c0-1.474,1.194-2.668,2.668-2.668h4.544c1.473,0,2.667,1.194,2.667,2.668V10.791z"/>
<g>
	<path fill="#FFFFFF" d="M9.779,14.839L9.779,14.839c-1.948,0-3.542-1.594-3.542-3.542V8.766c0-1.948,1.594-3.541,3.542-3.541
		s3.542,1.593,3.542,3.541v2.531C13.321,13.245,11.728,14.839,9.779,14.839z"/>
	<path fill="#4C4C4C" d="M9.779,15.169c-2.135,0-3.871-1.737-3.871-3.872V8.766c0-2.134,1.736-3.871,3.871-3.871
		s3.871,1.737,3.871,3.871v2.531C13.65,13.432,11.914,15.169,9.779,15.169z M9.779,5.555c-1.771,0-3.212,1.441-3.212,3.211v2.531
		c0,1.771,1.44,3.212,3.212,3.212c1.771,0,3.212-1.441,3.212-3.212V8.766C12.991,6.996,11.55,5.555,9.779,5.555z"/>
</g>
<path fill="#4C4C4C" d="M7.022,13.678c-1.593,0-2.888-1.294-2.888-2.887V6.247c0-1.592,1.295-2.888,2.888-2.888h4.544
	c0.884,0,1.725,0.415,2.271,1.116h0.399c1.163,0,2.108,0.946,2.108,2.107c0,1.09-0.83,1.991-1.892,2.099v2.109
	c0,0.122-0.1,0.22-0.221,0.22s-0.22-0.099-0.22-0.22V8.253h0.22c0.924,0,1.673-0.75,1.673-1.671c0-0.919-0.749-1.667-1.669-1.667
	h-0.622L13.55,4.823c-0.462-0.641-1.203-1.024-1.983-1.024H7.022c-1.35,0-2.448,1.098-2.448,2.448v4.544
	c0,1.35,1.099,2.447,2.448,2.447c0.121,0,0.22,0.098,0.22,0.22S7.144,13.678,7.022,13.678z"/>
<path fill="#4C4C4C" d="M9.396,13.678c-0.929,0-1.686-0.585-1.686-1.305h0.439c0,0.478,0.56,0.865,1.246,0.865
	c0.688,0,1.246-0.388,1.246-0.865h0.44C11.082,13.093,10.325,13.678,9.396,13.678z"/>
<g>
	<path fill="#FFFFFF" d="M20.101,15.345L20.101,15.345c-1.947,0-3.542-1.594-3.542-3.542v-2.53c0-1.948,1.595-3.542,3.542-3.542
		c1.948,0,3.542,1.593,3.542,3.542v2.53C23.643,13.751,22.049,15.345,20.101,15.345z"/>
	<path fill="#4C4C4C" d="M20.101,15.675c-2.135,0-3.871-1.737-3.871-3.872v-2.53c0-2.134,1.736-3.871,3.871-3.871
		c2.136,0,3.872,1.737,3.872,3.871v2.53C23.973,13.938,22.236,15.675,20.101,15.675z M20.101,6.062c-1.771,0-3.212,1.44-3.212,3.211
		v2.53c0,1.771,1.441,3.212,3.212,3.212c1.771,0,3.213-1.441,3.213-3.212v-2.53C23.313,7.502,21.872,6.062,20.101,6.062z"/>
</g>
<path fill="#4C4C4C" d="M19.718,14.184c-0.93,0-1.687-0.585-1.687-1.304h0.439c0,0.476,0.56,0.864,1.247,0.864
	s1.245-0.388,1.245-0.864h0.44C21.403,13.599,20.647,14.184,19.718,14.184z"/>
<linearGradient id="SVGID_5_" gradientUnits="userSpaceOnUse" x1="14.0234" y1="6.6807" x2="24.959" y2="6.6807">
	<stop  offset="0" style="stop-color:#D3FFCF"/>
	<stop  offset="1" style="stop-color:#1DFFF2"/>
</linearGradient>
<path fill="url(#SVGID_5_)" d="M24.928,5.674c0.188,1.027-0.488,2.013-1.514,2.203l-7.157,1.324
	c-1.025,0.189-2.012-0.49-2.201-1.517l0,0c-0.19-1.025,0.488-2.01,1.514-2.2l7.158-1.324C23.753,3.971,24.738,4.648,24.928,5.674
	L24.928,5.674z"/>
<path fill="#4C4C4C" d="M15.911,9.451c-1.016,0-1.887-0.727-2.072-1.727c-0.211-1.143,0.547-2.245,1.69-2.456l7.157-1.323
	c1.163-0.218,2.25,0.564,2.458,1.689c0.21,1.145-0.549,2.247-1.689,2.458l-7.158,1.323C16.167,9.44,16.038,9.451,15.911,9.451z
	 M23.073,4.349c-0.102,0-0.203,0.009-0.306,0.028L15.609,5.7c-0.438,0.081-0.819,0.328-1.071,0.695
	c-0.254,0.367-0.348,0.811-0.267,1.249c0.164,0.891,1.017,1.513,1.945,1.339l7.157-1.323c0.904-0.167,1.504-1.041,1.337-1.947
	C24.566,4.922,23.876,4.349,23.073,4.349z"/>
<path fill="#4C4C4C" d="M19.711,10.523h-0.439c0-0.42-0.342-0.763-0.763-0.763c-0.422,0-0.765,0.343-0.765,0.763h-0.439
	c0-0.663,0.54-1.203,1.204-1.203C19.172,9.32,19.711,9.86,19.711,10.523z"/>
<linearGradient id="SVGID_6_" gradientUnits="userSpaceOnUse" x1="9.9248" y1="15.9561" x2="21.6963" y2="15.9561">
	<stop  offset="0" style="stop-color:#D3FFCF"/>
	<stop  offset="1" style="stop-color:#1DFFF2"/>
</linearGradient>
<path fill="url(#SVGID_6_)" d="M19.804,21.88v-6.955h0.003c1.043,0,1.89-0.846,1.89-1.89c0-1.043-0.847-1.888-1.89-1.888h-0.508
	c-0.484-0.673-1.27-1.116-2.163-1.116h-4.543c-1.474,0-2.668,1.194-2.668,2.668v4.544c0,1.472,1.194,2.666,2.668,2.666"/>
<path fill="#4C4C4C" d="M19.804,22.101c-0.121,0-0.22-0.099-0.22-0.22v-7.174h0.22c0.924,0,1.673-0.75,1.673-1.67
	c0-0.92-0.749-1.668-1.67-1.668h-0.62l-0.066-0.092c-0.461-0.641-1.203-1.024-1.984-1.024h-4.543c-1.35,0-2.448,1.098-2.448,2.448
	v4.544c0,1.349,1.099,2.446,2.448,2.446c0.121,0,0.22,0.098,0.22,0.22s-0.099,0.22-0.22,0.22c-1.593,0-2.888-1.295-2.888-2.886V12.7
	c0-1.592,1.295-2.888,2.888-2.888h4.543c0.885,0,1.726,0.415,2.272,1.116h0.398c1.163,0,2.11,0.946,2.11,2.108
	c0,1.09-0.832,1.99-1.894,2.099v6.746C20.023,22.002,19.925,22.101,19.804,22.101z"/>
<g>
	<path fill="#FFFFFF" d="M15.35,21.292L15.35,21.292c-1.948,0-3.542-1.594-3.542-3.542v-2.531c0-1.948,1.594-3.541,3.542-3.541
		s3.542,1.593,3.542,3.541v2.531C18.892,19.697,17.298,21.292,15.35,21.292z"/>
	<path fill="#4C4C4C" d="M15.35,21.621c-2.135,0-3.872-1.737-3.872-3.872v-2.531c0-2.134,1.737-3.871,3.872-3.871
		s3.872,1.737,3.872,3.871v2.531C19.222,19.884,17.484,21.621,15.35,21.621z M15.35,12.007c-1.771,0-3.212,1.441-3.212,3.211v2.531
		c0,1.771,1.44,3.212,3.212,3.212c1.771,0,3.212-1.441,3.212-3.212v-2.531C18.562,13.448,17.12,12.007,15.35,12.007z"/>
</g>
<path fill="#4C4C4C" d="M14.967,20.13c-0.931,0-1.688-0.585-1.688-1.304h0.44c0,0.477,0.559,0.864,1.247,0.864
	c0.687,0,1.245-0.388,1.245-0.864h0.439C16.651,19.545,15.896,20.13,14.967,20.13z"/>
<linearGradient id="SVGID_7_" gradientUnits="userSpaceOnUse" x1="10.5977" y1="13.0605" x2="21.6533" y2="13.0605">
	<stop  offset="0" style="stop-color:#D3FFCF"/>
	<stop  offset="1" style="stop-color:#1DFFF2"/>
</linearGradient>
<path fill="url(#SVGID_7_)" d="M21.653,13.059c0,1.044-0.845,1.891-1.888,1.891h-7.279c-1.043,0-1.889-0.847-1.889-1.891l0,0
	c0-1.042,0.846-1.888,1.889-1.888h7.279C20.809,11.171,21.653,12.016,21.653,13.059L21.653,13.059z"/>
<path fill="#4C4C4C" d="M19.766,15.169h-7.279c-1.163,0-2.108-0.947-2.108-2.11c0-1.162,0.945-2.107,2.108-2.107h7.279
	c1.162,0,2.108,0.945,2.108,2.107C21.874,14.222,20.928,15.169,19.766,15.169z M12.486,11.391c-0.92,0-1.669,0.748-1.669,1.668
	c0,0.921,0.749,1.67,1.669,1.67h7.279c0.92,0,1.668-0.749,1.668-1.67c0-0.92-0.748-1.668-1.668-1.668H12.486z"/>
<path fill="#D3D3D3" d="M16.126,6.679c0,1.044-0.845,1.892-1.89,1.892H6.958c-1.043,0-1.889-0.847-1.889-1.892l0,0
	c0-1.042,0.846-1.888,1.889-1.888h7.278C15.281,4.792,16.126,5.637,16.126,6.679L16.126,6.679z"/>
<path fill="#4C4C4C" d="M14.236,8.79H6.958c-1.162,0-2.109-0.946-2.109-2.11c0-1.162,0.947-2.107,2.109-2.107h7.278
	c1.163,0,2.109,0.945,2.109,2.107C16.346,7.843,15.399,8.79,14.236,8.79z M6.958,5.011c-0.92,0-1.669,0.748-1.669,1.668
	c0,0.921,0.749,1.671,1.669,1.671h7.278c0.921,0,1.67-0.75,1.67-1.671c0-0.92-0.749-1.668-1.67-1.668H6.958z"/>
<path fill="#4C4C4C" d="M22.899,10.523h-0.44c0-0.42-0.342-0.763-0.763-0.763c-0.422,0-0.764,0.343-0.764,0.763h-0.44
	c0-0.663,0.54-1.203,1.204-1.203C22.359,9.32,22.899,9.86,22.899,10.523z"/>
<path fill="#4C4C4C" d="M17.434,21.994c0,0.135-0.11,0.244-0.244,0.244l0,0c-0.136,0-0.244-0.109-0.244-0.244v-1.147
	c0-0.135,0.108-0.244,0.244-0.244l0,0c0.134,0,0.244,0.109,0.244,0.244V21.994z"/>
<path fill="#4C4C4C" d="M33.753,13.925h-1.759c-0.036,0-0.065-0.03-0.065-0.066c0-0.037,0.029-0.066,0.065-0.066h1.759
	c0.036,0,0.066,0.03,0.066,0.066C33.819,13.895,33.789,13.925,33.753,13.925z M30.235,13.925h-1.759
	c-0.036,0-0.066-0.03-0.066-0.066c0-0.037,0.03-0.066,0.066-0.066h1.759c0.036,0,0.066,0.03,0.066,0.066
	C30.302,13.895,30.271,13.925,30.235,13.925z M26.718,13.925h-1.759c-0.036,0-0.066-0.03-0.066-0.066
	c0-0.037,0.03-0.066,0.066-0.066h1.759c0.036,0,0.066,0.03,0.066,0.066C26.784,13.895,26.754,13.925,26.718,13.925z"/>
<path fill="#4C4C4C" d="M37.38,18.121h-1.76c-0.035,0-0.065-0.03-0.065-0.066s0.03-0.066,0.065-0.066h1.76
	c0.036,0,0.065,0.029,0.065,0.066S37.416,18.121,37.38,18.121z M33.861,18.121h-1.759c-0.036,0-0.066-0.03-0.066-0.066
	s0.03-0.066,0.066-0.066h1.759c0.036,0,0.066,0.029,0.066,0.066S33.897,18.121,33.861,18.121z M30.344,18.121h-1.759
	c-0.036,0-0.066-0.03-0.066-0.066s0.03-0.066,0.066-0.066h1.759c0.036,0,0.066,0.029,0.066,0.066S30.38,18.121,30.344,18.121z"/>
<path fill="#4C4C4C" d="M42.998,15.999H27.126c-0.035,0-0.065-0.03-0.065-0.066c0-0.036,0.03-0.066,0.065-0.066h15.872
	c0.036,0,0.066,0.03,0.066,0.066C43.064,15.969,43.034,15.999,42.998,15.999z"/>
</svg>
