<?xml version="1.0" encoding="utf-8"?>
<!-- Generator: Adobe Illustrator 16.0.2, SVG Export Plug-In . SVG Version: 6.00 Build 0)  -->
<!DOCTYPE svg PUBLIC "-//W3C//DTD SVG 1.1//EN" "http://www.w3.org/Graphics/SVG/1.1/DTD/svg11.dtd">
<svg version="1.1" id="Layer_1" xmlns="http://www.w3.org/2000/svg" xmlns:xlink="http://www.w3.org/1999/xlink" x="0px" y="0px"
	 width="36.75px" height="32.433px" viewBox="0 0 36.75 32.433" enable-background="new 0 0 36.75 32.433" xml:space="preserve">
<path fill="#6EE785" d="M21.536,20.632c0,4.765-3.863,8.628-8.628,8.628c-4.767,0-8.63-3.863-8.63-8.628
	c0-4.766,3.863-8.63,8.63-8.63C17.673,12.002,21.536,15.866,21.536,20.632"/>
<path fill="#4C4C4C" d="M10.999,28.602c-4.978,0-9.028-4.049-9.028-9.026c0-4.978,4.05-9.028,9.028-9.028
	c4.979,0,9.028,4.05,9.028,9.028C20.027,24.553,15.977,28.602,10.999,28.602z M10.999,11.344c-4.539,0-8.231,3.692-8.231,8.231
	c0,4.538,3.693,8.23,8.231,8.23c4.539,0,8.232-3.692,8.232-8.23C19.23,15.037,15.538,11.344,10.999,11.344z"/>
<g>
	<line fill="#FFFFFF" x1="22.69" y1="31.001" x2="17.22" y2="25.533"/>
	
		<rect x="16.088" y="27.869" transform="matrix(0.7072 0.707 -0.707 0.7072 25.8282 -5.8318)" fill="#4C4C4C" width="7.735" height="0.796"/>
</g>
<path fill="#4C4C4C" d="M22.69,31.798c-0.204,0-0.408-0.078-0.563-0.233l-5.47-5.468c-0.312-0.311-0.312-0.815,0-1.126
	c0.311-0.312,0.815-0.312,1.126,0l5.47,5.468c0.312,0.311,0.312,0.815,0,1.126C23.098,31.72,22.894,31.798,22.69,31.798z"/>
<path fill="#4C4C4C" d="M28.356,26.725h-1.593c-0.033,0-0.06-0.027-0.06-0.06c0-0.033,0.027-0.06,0.06-0.06h1.593
	c0.033,0,0.06,0.027,0.06,0.06C28.416,26.698,28.39,26.725,28.356,26.725z M25.17,26.725h-1.593c-0.033,0-0.06-0.027-0.06-0.06
	c0-0.033,0.027-0.06,0.06-0.06h1.593c0.033,0,0.06,0.027,0.06,0.06C25.23,26.698,25.203,26.725,25.17,26.725z M21.984,26.725h-1.594
	c-0.033,0-0.06-0.027-0.06-0.06c0-0.033,0.027-0.06,0.06-0.06h1.594c0.033,0,0.06,0.027,0.06,0.06
	C22.044,26.698,22.017,26.725,21.984,26.725z"/>
<path fill="#4C4C4C" d="M30.844,22.924h-1.593c-0.033,0-0.06-0.026-0.06-0.06s0.027-0.06,0.06-0.06h1.593
	c0.033,0,0.06,0.027,0.06,0.06S30.877,22.924,30.844,22.924z M27.658,22.924h-1.593c-0.033,0-0.06-0.026-0.06-0.06
	s0.026-0.06,0.06-0.06h1.593c0.033,0,0.06,0.027,0.06,0.06S27.691,22.924,27.658,22.924z M24.472,22.924h-1.593
	c-0.033,0-0.06-0.026-0.06-0.06s0.027-0.06,0.06-0.06h1.593c0.033,0,0.06,0.027,0.06,0.06S24.504,22.924,24.472,22.924z"/>
<path fill="#4C4C4C" d="M35.933,24.846H21.558c-0.033,0-0.06-0.027-0.06-0.06c0-0.033,0.027-0.06,0.06-0.06h14.375
	c0.033,0,0.06,0.027,0.06,0.06C35.993,24.819,35.966,24.846,35.933,24.846z"/>
<g>
	<g>
		
			<linearGradient id="SVGID_1_" gradientUnits="userSpaceOnUse" x1="0.9761" y1="15.2168" x2="28.6099" y2="15.2168" gradientTransform="matrix(1 0 0 1 0.5664 0)">
			<stop  offset="0" style="stop-color:#D3FFCF"/>
			<stop  offset="1" style="stop-color:#1DFFF2"/>
		</linearGradient>
		<path fill-rule="evenodd" clip-rule="evenodd" fill="url(#SVGID_1_)" d="M14.566,1.174c-0.562,0-1.019,0.457-1.019,1.02
			c0,0.563,0.457,1.019,1.019,1.019c0.563,0,1.021-0.456,1.021-1.019C15.587,1.63,15.129,1.174,14.566,1.174z M2.109,28.128
			c-0.313,0-0.566,0.253-0.566,0.566c0,0.313,0.254,0.565,0.566,0.565c0.313,0,0.566-0.253,0.566-0.565
			C2.675,28.382,2.422,28.128,2.109,28.128z M28.837,23.371c-0.187,0-0.339,0.153-0.339,0.34c0,0.188,0.152,0.34,0.339,0.34
			c0.188,0,0.339-0.152,0.339-0.34C29.176,23.524,29.026,23.371,28.837,23.371z"/>
	</g>
</g>
<circle fill-rule="evenodd" clip-rule="evenodd" fill="#FFFFFF" cx="14.568" cy="2.193" r="1.02"/>
</svg>
