<?xml version="1.0" encoding="utf-8"?>
<!-- Generator: Adobe Illustrator 16.0.2, SVG Export Plug-In . SVG Version: 6.00 Build 0)  -->
<!DOCTYPE svg PUBLIC "-//W3C//DTD SVG 1.1//EN" "http://www.w3.org/Graphics/SVG/1.1/DTD/svg11.dtd">
<svg version="1.1" id="Layer_1" xmlns="http://www.w3.org/2000/svg" xmlns:xlink="http://www.w3.org/1999/xlink" x="0px" y="0px"
	 width="36.75px" height="32.433px" viewBox="0 0 36.75 32.433" enable-background="new 0 0 36.75 32.433" xml:space="preserve">
<linearGradient id="SVGID_1_" gradientUnits="userSpaceOnUse" x1="4.2778" y1="20.6313" x2="21.5356" y2="20.6313">
	<stop  offset="0" style="stop-color:#D3FFCF"/>
	<stop  offset="1" style="stop-color:#1DFFF2"/>
</linearGradient>
<path fill="url(#SVGID_1_)" d="M21.536,20.633c0,4.765-3.863,8.628-8.628,8.628c-4.767,0-8.63-3.863-8.63-8.628
	c0-4.767,3.863-8.631,8.63-8.631C17.673,12.002,21.536,15.866,21.536,20.633"/>
<path fill="#4C4C4C" d="M10.999,28.603c-4.978,0-9.028-4.049-9.028-9.026c0-4.979,4.05-9.028,9.028-9.028
	c4.979,0,9.028,4.05,9.028,9.028C20.027,24.554,15.977,28.603,10.999,28.603z M10.999,11.345c-4.539,0-8.231,3.692-8.231,8.231
	c0,4.538,3.693,8.229,8.231,8.229c4.539,0,8.232-3.691,8.232-8.229C19.23,15.037,15.538,11.345,10.999,11.345z"/>
<g>
	<line fill="#FFFFFF" x1="22.69" y1="31.002" x2="17.22" y2="25.533"/>
	
		<rect x="16.088" y="27.87" transform="matrix(0.7072 0.707 -0.707 0.7072 25.8283 -5.8318)" fill="#4C4C4C" width="7.735" height="0.796"/>
</g>
<path fill="#4C4C4C" d="M22.69,31.798c-0.204,0-0.408-0.077-0.563-0.233l-5.47-5.468c-0.312-0.312-0.312-0.815,0-1.127
	c0.311-0.312,0.815-0.312,1.126,0l5.47,5.469c0.312,0.311,0.312,0.815,0,1.126C23.098,31.721,22.894,31.798,22.69,31.798z"/>
<path fill="#4C4C4C" d="M28.356,26.726h-1.593c-0.033,0-0.06-0.027-0.06-0.061c0-0.032,0.027-0.06,0.06-0.06h1.593
	c0.033,0,0.06,0.027,0.06,0.06C28.416,26.698,28.39,26.726,28.356,26.726z M25.17,26.726h-1.593c-0.033,0-0.06-0.027-0.06-0.061
	c0-0.032,0.027-0.06,0.06-0.06h1.593c0.033,0,0.06,0.027,0.06,0.06C25.23,26.698,25.203,26.726,25.17,26.726z M21.984,26.726h-1.594
	c-0.033,0-0.06-0.027-0.06-0.061c0-0.032,0.027-0.06,0.06-0.06h1.594c0.033,0,0.06,0.027,0.06,0.06
	C22.044,26.698,22.017,26.726,21.984,26.726z"/>
<path fill="#4C4C4C" d="M30.844,22.925h-1.593c-0.033,0-0.06-0.026-0.06-0.06s0.027-0.061,0.06-0.061h1.593
	c0.033,0,0.06,0.027,0.06,0.061S30.877,22.925,30.844,22.925z M27.658,22.925h-1.593c-0.033,0-0.06-0.026-0.06-0.06
	s0.026-0.061,0.06-0.061h1.593c0.033,0,0.06,0.027,0.06,0.061S27.691,22.925,27.658,22.925z M24.472,22.925h-1.593
	c-0.033,0-0.06-0.026-0.06-0.06s0.027-0.061,0.06-0.061h1.593c0.033,0,0.06,0.027,0.06,0.061S24.504,22.925,24.472,22.925z"/>
<path fill="#4C4C4C" d="M35.933,24.846H21.558c-0.033,0-0.06-0.026-0.06-0.06s0.027-0.06,0.06-0.06h14.375
	c0.033,0,0.06,0.026,0.06,0.06S35.966,24.846,35.933,24.846z"/>
<g>
	<g>
		
			<linearGradient id="SVGID_2_" gradientUnits="userSpaceOnUse" x1="-40.0239" y1="88.0337" x2="-12.3901" y2="88.0337" gradientTransform="matrix(1 0 0 1 41.5664 -72.8169)">
			<stop  offset="0" style="stop-color:#D3FFCF"/>
			<stop  offset="1" style="stop-color:#1DFFF2"/>
		</linearGradient>
		<path fill-rule="evenodd" clip-rule="evenodd" fill="url(#SVGID_2_)" d="M14.566,1.174c-0.562,0-1.019,0.457-1.019,1.02
			c0,0.563,0.457,1.02,1.019,1.02c0.563,0,1.021-0.456,1.021-1.02C15.587,1.631,15.129,1.174,14.566,1.174z M2.109,28.129
			c-0.313,0-0.566,0.253-0.566,0.566c0,0.313,0.254,0.565,0.566,0.565c0.313,0,0.566-0.253,0.566-0.565
			C2.675,28.382,2.422,28.129,2.109,28.129z M28.837,23.371c-0.187,0-0.339,0.153-0.339,0.341s0.152,0.34,0.339,0.34
			c0.188,0,0.339-0.152,0.339-0.34S29.026,23.371,28.837,23.371z"/>
	</g>
</g>
<circle fill-rule="evenodd" clip-rule="evenodd" fill="#FFFFFF" cx="14.568" cy="2.193" r="1.02"/>
</svg>
