<?xml version="1.0" encoding="utf-8"?>
<!-- Generator: Adobe Illustrator 16.0.2, SVG Export Plug-In . SVG Version: 6.00 Build 0)  -->
<!DOCTYPE svg PUBLIC "-//W3C//DTD SVG 1.1//EN" "http://www.w3.org/Graphics/SVG/1.1/DTD/svg11.dtd">
<svg version="1.1" id="Layer_1" xmlns="http://www.w3.org/2000/svg" xmlns:xlink="http://www.w3.org/1999/xlink" x="0px" y="0px"
	 width="46.833px" height="35.167px" viewBox="0 0 46.833 35.167" enable-background="new 0 0 46.833 35.167" xml:space="preserve">
<g>
	<g>
		<g>
			<linearGradient id="SVGID_1_" gradientUnits="userSpaceOnUse" x1="14.2324" y1="16.2246" x2="44.7432" y2="16.2246">
				<stop  offset="0" style="stop-color:#D3FFCF"/>
				<stop  offset="1" style="stop-color:#1DFFF2"/>
			</linearGradient>
			<path fill-rule="evenodd" clip-rule="evenodd" fill="url(#SVGID_1_)" d="M28.611,0.719c-0.619,0-1.125,0.504-1.125,1.125
				c0,0.622,0.506,1.125,1.125,1.125c0.623,0,1.127-0.503,1.127-1.125C29.738,1.223,29.234,0.719,28.611,0.719z M14.857,30.48
				c-0.344,0-0.625,0.28-0.625,0.625s0.281,0.625,0.625,0.625c0.346,0,0.625-0.279,0.625-0.625S15.203,30.48,14.857,30.48z
				 M44.369,25.227c-0.207,0-0.375,0.169-0.375,0.376c0,0.207,0.168,0.375,0.375,0.375s0.375-0.168,0.375-0.375
				C44.744,25.396,44.576,25.227,44.369,25.227z"/>
		</g>
	</g>
	<g>
		<path fill="#39CC74" d="M27.977,9.945c0,1.473-1.195,2.667-2.666,2.667h-4.545c-1.473,0-2.668-1.194-2.668-2.667V5.401
			c0-1.474,1.195-2.667,2.668-2.667h4.545c1.471,0,2.666,1.194,2.666,2.667V9.945z"/>
		<path fill="#4C4C4C" d="M16.543,32.361c-0.121,0-0.219-0.098-0.219-0.22v-9.88c0-0.122,0.098-0.22,0.219-0.22
			s0.221,0.099,0.221,0.22v9.88C16.764,32.263,16.664,32.361,16.543,32.361z"/>
		<path fill="#4C4C4C" d="M32.721,32.471c-0.182,0-0.328-0.147-0.328-0.33v-9.88c0-0.182,0.146-0.33,0.328-0.33
			c0.184,0,0.33,0.148,0.33,0.33v9.88C33.051,32.323,32.904,32.471,32.721,32.471z"/>
		<path fill="#4C4C4C" d="M34.838,22.589H15.105v-2.995h19.732V22.589z M15.764,21.93h18.414v-1.675H15.764V21.93z"/>
		<path fill="#4C4C4C" d="M18.846,24.872h-2.303c-0.121,0-0.219-0.098-0.219-0.22s0.098-0.22,0.219-0.22h2.303
			c0.121,0,0.221,0.099,0.221,0.22S18.967,24.872,18.846,24.872z"/>
		<path fill="#4C4C4C" d="M37.602,24.981H20c-0.182,0-0.328-0.147-0.328-0.33s0.146-0.33,0.328-0.33h17.602
			c0.65,0,2.338-0.371,2.338-2.062v-6.536c0-0.438-0.055-0.895-0.34-1.247c-0.002,0.582-0.35,1.182-0.617,1.468
			c-0.387,0.413-4.113,4.061-4.271,4.216l-0.096,0.094h-6.098c-1.066,0-1.869-0.591-1.869-1.375c0-0.322,0.133-1.374,1.84-1.374
			h4.652l3.822-3.683c0.402-0.389,0.932-0.602,1.496-0.571c0.043-0.006,0.086-0.004,0.133,0.009c0.002,0,0.002,0.001,0.004,0.001
			c0.072,0.008,0.143,0.021,0.213,0.037c1.789,0.417,1.789,1.927,1.789,2.424v6.536C40.598,24.242,38.76,24.981,37.602,24.981z
			 M28.488,18.166c-0.783,0-1.182,0.24-1.182,0.714c0,0.401,0.531,0.715,1.211,0.715h5.828c0.6-0.588,3.813-3.735,4.154-4.101
			c0.236-0.253,0.521-0.824,0.42-1.191c-0.02-0.067-0.074-0.267-0.453-0.39c-0.379-0.032-0.764,0.111-1.047,0.385l-4.014,3.868
			H28.488z"/>
		<path fill="#4C4C4C" d="M39.273,26.277h-6.553c-0.182,0-0.328-0.148-0.328-0.33s0.146-0.33,0.328-0.33h6.553
			c0.65,0,2.338-0.37,2.338-2.062v-5.061c0-0.182,0.146-0.33,0.33-0.33c0.182,0,0.33,0.147,0.33,0.33v5.061
			C42.271,25.538,40.432,26.277,39.273,26.277z"/>
		<path fill="#4C4C4C" d="M29.314,18.165c-0.184,0-0.33-0.147-0.33-0.33c0-1.034-0.307-1.625-0.963-1.86
			c-0.572-0.207-1.875-0.532-2.904-0.768c-0.178-0.041-0.287-0.218-0.246-0.396c0.039-0.177,0.213-0.29,0.395-0.248
			c0.508,0.117,2.225,0.519,2.979,0.791c0.928,0.333,1.398,1.167,1.398,2.48C29.643,18.017,29.496,18.165,29.314,18.165z"/>
		<path fill="#4C4C4C" d="M17.695,20.254c-0.182,0-0.33-0.148-0.33-0.33v-2.452c0-0.738,0.574-1.963,1.508-2.284
			c0.357-0.124,1.27-0.338,2.707-0.636c0.182-0.041,0.352,0.078,0.391,0.256c0.037,0.179-0.078,0.353-0.256,0.39
			c-1.373,0.284-2.305,0.501-2.627,0.613c-0.617,0.212-1.063,1.139-1.063,1.661v2.452C18.025,20.106,17.877,20.254,17.695,20.254z"
			/>
		<path fill="#4C4C4C" d="M23.451,16.481c-1.207,0-2.107-0.852-2.107-1.612v-1.43c0-0.182,0.146-0.33,0.33-0.33
			c0.182,0,0.33,0.147,0.33,0.33v1.43c0,0.383,0.607,0.953,1.447,0.953c0.807,0,1.391-0.392,1.391-0.93v-1.459
			c0-0.182,0.148-0.33,0.33-0.33s0.33,0.147,0.33,0.33v1.459C25.502,15.813,24.641,16.481,23.451,16.481z"/>
		<path fill="#4C4C4C" d="M38.791,13.931c-2.135,0-3.873-1.737-3.873-3.872V7.528c0-2.135,1.738-3.872,3.873-3.872
			c2.133,0,3.869,1.737,3.869,3.872v2.531C42.66,12.194,40.924,13.931,38.791,13.931z M38.791,4.316
			c-1.771,0-3.213,1.441-3.213,3.212v2.531c0,1.771,1.441,3.212,3.213,3.212c1.77,0,3.209-1.441,3.209-3.212V7.528
			C42,5.757,40.561,4.316,38.791,4.316z"/>
		<path fill="#4C4C4C" d="M40.006,32.471c-0.148,0-0.283-0.1-0.32-0.25l-1.541-6.194c-0.043-0.177,0.064-0.355,0.242-0.399
			c0.178-0.048,0.355,0.063,0.4,0.24l1.539,6.194c0.043,0.177-0.064,0.355-0.24,0.399C40.059,32.468,40.031,32.471,40.006,32.471z"
			/>
		<path fill="#4C4C4C" d="M31.504,32.471c-0.148,0-0.281-0.1-0.32-0.249l-0.635-2.513H18.832l-0.566,2.505
			c-0.041,0.178-0.215,0.289-0.395,0.25c-0.178-0.04-0.289-0.217-0.25-0.395l0.684-3.019h12.758l0.762,3.011
			c0.043,0.177-0.063,0.356-0.24,0.401C31.557,32.468,31.531,32.471,31.504,32.471z"/>
		<path fill="#4C4C4C" d="M18.92,14.378h-1.76c-0.035,0-0.066-0.03-0.066-0.066c0-0.036,0.031-0.066,0.066-0.066h1.76
			c0.035,0,0.066,0.03,0.066,0.066C18.986,14.348,18.955,14.378,18.92,14.378z M15.402,14.378h-1.76
			c-0.035,0-0.066-0.03-0.066-0.066c0-0.036,0.031-0.066,0.066-0.066h1.76c0.035,0,0.066,0.03,0.066,0.066
			C15.469,14.348,15.438,14.378,15.402,14.378z M11.883,14.378h-1.758c-0.037,0-0.066-0.03-0.066-0.066
			c0-0.036,0.029-0.066,0.066-0.066h1.758c0.037,0,0.066,0.03,0.066,0.066C11.949,14.348,11.92,14.378,11.883,14.378z"/>
		<path fill="#4C4C4C" d="M15.291,18.573h-1.758c-0.037,0-0.066-0.029-0.066-0.066s0.029-0.066,0.066-0.066h1.758
			c0.037,0,0.066,0.029,0.066,0.066S15.328,18.573,15.291,18.573z M11.773,18.573h-1.758c-0.037,0-0.066-0.029-0.066-0.066
			s0.029-0.066,0.066-0.066h1.758c0.037,0,0.066,0.029,0.066,0.066S11.811,18.573,11.773,18.573z M8.256,18.573h-1.76
			c-0.035,0-0.064-0.029-0.064-0.066s0.029-0.066,0.064-0.066h1.76c0.035,0,0.066,0.029,0.066,0.066S8.291,18.573,8.256,18.573z"/>
		<path fill="#4C4C4C" d="M16.752,16.452H0.881c-0.037,0-0.066-0.03-0.066-0.066c0-0.036,0.029-0.066,0.066-0.066h15.871
			c0.035,0,0.066,0.03,0.066,0.066C16.818,16.422,16.787,16.452,16.752,16.452z"/>
		<path fill="#39CC74" d="M43.994,4.622c0,1.043-0.846,1.889-1.889,1.889h-7.279c-1.043,0-1.889-0.846-1.889-1.889l0,0
			c0-1.043,0.846-1.889,1.889-1.889h7.279C43.148,2.733,43.994,3.579,43.994,4.622L43.994,4.622z"/>
		<path fill="#39CC74" d="M42.105,2.733c1.043,0,1.889,0.845,1.889,1.889v7.279c0,1.042-0.846,1.89-1.889,1.89l0,0
			c-1.045,0-1.889-0.847-1.889-1.89V4.622C40.217,3.579,41.061,2.733,42.105,2.733L42.105,2.733z"/>
		<path fill="#4C4C4C" d="M42.105,14.01c-1.164,0-2.109-0.946-2.109-2.109V6.731h-5.17c-1.164,0-2.109-0.947-2.109-2.109
			s0.945-2.109,2.109-2.109h7.279c0.285,0,0.561,0.056,0.82,0.165c0.643,0.272,1.105,0.84,1.246,1.519
			c0.027,0.136,0.043,0.279,0.043,0.425v7.279C44.215,13.064,43.268,14.01,42.105,14.01z M34.826,2.953
			c-0.92,0-1.67,0.749-1.67,1.669s0.75,1.669,1.67,1.669h5.609v5.609c0,0.921,0.75,1.669,1.67,1.669s1.67-0.749,1.67-1.669V4.622
			c0-0.116-0.012-0.229-0.035-0.336c-0.109-0.538-0.479-0.987-0.984-1.202c-0.207-0.086-0.426-0.13-0.65-0.13H34.826z"/>
		<g>
			<path fill="#FFFFFF" d="M23.521,13.993L23.521,13.993c-1.947,0-3.541-1.594-3.541-3.542V7.92c0-1.948,1.594-3.541,3.541-3.541
				c1.949,0,3.543,1.593,3.543,3.541v2.531C27.064,12.399,25.471,13.993,23.521,13.993z"/>
			<path fill="#4C4C4C" d="M23.521,14.323c-2.133,0-3.869-1.737-3.869-3.872V7.92c0-2.134,1.736-3.871,3.869-3.871
				c2.137,0,3.873,1.736,3.873,3.871v2.531C27.395,12.586,25.658,14.323,23.521,14.323z M23.521,4.708
				c-1.77,0-3.211,1.441-3.211,3.211v2.531c0,1.771,1.441,3.212,3.211,3.212c1.771,0,3.213-1.441,3.213-3.212V7.92
				C26.734,6.149,25.293,4.708,23.521,4.708z"/>
		</g>
		<path fill="#4C4C4C" d="M20.766,12.832c-1.592,0-2.889-1.295-2.889-2.887V5.401c0-1.592,1.297-2.888,2.889-2.888h4.545
			c0.883,0,1.725,0.415,2.271,1.116h0.398c1.164,0,2.109,0.946,2.109,2.108c0,1.09-0.832,1.99-1.893,2.099v2.109
			c0,0.122-0.1,0.22-0.221,0.22s-0.219-0.098-0.219-0.22V7.407h0.219c0.924,0,1.674-0.75,1.674-1.67c0-0.92-0.75-1.668-1.67-1.668
			h-0.621l-0.066-0.091c-0.461-0.641-1.203-1.024-1.982-1.024h-4.545c-1.35,0-2.447,1.098-2.447,2.448v4.544
			c0,1.349,1.098,2.447,2.447,2.447c0.121,0,0.219,0.099,0.219,0.22C20.984,12.733,20.887,12.832,20.766,12.832z"/>
		<path fill="#39CC74" d="M30.498,5.737c0,1.044-0.844,1.89-1.889,1.89h-7.277c-1.043,0-1.889-0.846-1.889-1.89l0,0
			c0-1.043,0.846-1.888,1.889-1.888h7.277C29.654,3.849,30.498,4.694,30.498,5.737L30.498,5.737z"/>
		<path fill="#4C4C4C" d="M28.609,7.847h-7.277c-1.164,0-2.109-0.947-2.109-2.11c0-1.162,0.945-2.108,2.109-2.108h7.277
			c1.164,0,2.109,0.946,2.109,2.108C30.719,6.9,29.773,7.847,28.609,7.847z M21.332,4.069c-0.92,0-1.67,0.748-1.67,1.668
			c0,0.921,0.75,1.67,1.67,1.67h7.277c0.92,0,1.67-0.75,1.67-1.67c0-0.92-0.75-1.668-1.67-1.668H21.332z"/>
		<path fill="#4C4C4C" d="M23.139,12.832c-0.93,0-1.686-0.585-1.686-1.305h0.439c0,0.477,0.559,0.865,1.246,0.865
			s1.246-0.388,1.246-0.865h0.441C24.826,12.247,24.068,12.832,23.139,12.832z"/>
		<path fill="#4C4C4C" d="M36.213,12.487v-0.439c0.686,0,1.244-0.388,1.244-0.865h0.439C37.896,11.902,37.141,12.487,36.213,12.487z
			"/>
		<path fill="#4C4C4C" d="M38.686,8.942h-0.439c0-0.421-0.342-0.763-0.764-0.763c-0.42,0-0.764,0.342-0.764,0.763h-0.439
			c0-0.663,0.539-1.203,1.203-1.203S38.686,8.279,38.686,8.942z"/>
	</g>
</g>
</svg>
